<?xml version="1.0" standalone="no"?><!DOCTYPE svg PUBLIC "-//W3C//DTD SVG 1.1//EN" "http://www.w3.org/Graphics/SVG/1.1/DTD/svg11.dtd"><svg t="1746727266856" class="icon" viewBox="0 0 1024 1024" version="1.1" xmlns="http://www.w3.org/2000/svg" p-id="9291" width="48" height="48" xmlns:xlink="http://www.w3.org/1999/xlink"><path d="M1011.2 332.288c-7.68-4.608-17.92-4.608-25.6 0L860.16 404.48v343.04l125.44 72.192c4.096 2.048 8.192 3.584 12.8 3.584s8.704-1.024 12.8-3.584c7.68-4.608 12.8-12.8 12.8-22.016V354.304c0-9.216-5.12-17.408-12.8-22.016zM768 211.456H51.2c-28.16 0-51.2 23.04-51.2 51.2v614.4c0 28.16 23.04 51.2 51.2 51.2h716.8c28.16 0 51.2-23.04 51.2-51.2v-614.4c0-28.672-23.04-51.2-51.2-51.2z m-240.128 385.536l-209.92 122.368c-4.096 2.56-9.216 4.096-14.848 4.096-15.872 0-28.672-13.312-28.672-29.184v-3.072l-0.512-244.224h0.512V445.44c0-15.872 12.8-29.184 28.672-29.184 8.704 0 16.384 3.584 21.504 9.728l204.8 119.296c8.704 5.12 14.336 14.336 14.336 25.088 1.024 11.776-5.632 22.016-15.872 26.624z" p-id="9292" fill="#707070"></path></svg>