<?xml version="1.0" standalone="no"?><!DOCTYPE svg PUBLIC "-//W3C//DTD SVG 1.1//EN" "http://www.w3.org/Graphics/SVG/1.1/DTD/svg11.dtd"><svg t="1746786930721" class="icon" viewBox="0 0 1025 1024" version="1.1" xmlns="http://www.w3.org/2000/svg" p-id="6684" xmlns:xlink="http://www.w3.org/1999/xlink" width="16.015625" height="16"><path d="M827.7 832.2c-140.3 138.4-360.8 172.2-539.9 68.9S27.9 589.8 77.4 399l-36.1-21c-59.9 211 28 443.4 226.3 557.9s443.6 74.3 596.1-82.8L827.7 832.2 827.7 832.2z" p-id="6685" fill="#707070"></path><path d="M100.8 293m-20.2 0a20.2 20.2 0 1 0 40.4 0 20.2 20.2 0 1 0-40.4 0Z" p-id="6686" fill="#707070"></path><path d="M512.5 158.6c-195.1 0-353.3 158.2-353.3 353.3s158.2 353.3 353.3 353.3 353.3-158.2 353.3-353.3S707.6 158.6 512.5 158.6zM512.8 793.7C357.2 793.7 231 667.5 231 511.8s126.2-281.9 281.9-281.9 281.9 126.2 281.9 281.9S668.5 793.7 512.8 793.7z" p-id="6687" fill="#707070"></path><path d="M757.3 88.1c-215.8-124.5-487-66.5-634.1 126.7l35.3 20.5 0 0C294.2 61.3 540.7 9.5 737.1 123s274.8 352.8 192 557.2l35.3 20.5C1058.2 476.7 973.2 212.6 757.3 88.1z" p-id="6688" fill="#707070"></path><path d="M903.7 765.7m-20.2 0a20.2 20.2 0 1 0 40.4 0 20.2 20.2 0 1 0-40.4 0Z" p-id="6689" fill="#707070"></path></svg>